<?xml version="1.0" standalone="no"?>
<!DOCTYPE svg PUBLIC "-//W3C//DTD SVG 20010904//EN"
 "http://www.w3.org/TR/2001/REC-SVG-20010904/DTD/svg10.dtd">
<svg version="1.0" xmlns="http://www.w3.org/2000/svg"
 width="650.000000pt" height="650.000000pt" viewBox="0 0 650.000000 650.000000"
 preserveAspectRatio="xMidYMid meet">
<metadata>
Created by potrace 1.14, written by Peter Selinger 2001-2017
</metadata>
<g transform="translate(0.000000,650.000000) scale(0.100000,-0.100000)"
fill="#000000" stroke="none">
<path d="M0 4238 l0 -2263 121 120 c163 162 285 316 359 452 52 95 59 116 50
133 -14 26 -5 40 24 40 24 0 34 16 88 145 22 51 31 91 34 145 14 293 22 356
84 660 29 141 29 145 11 163 -18 19 -20 17 -74 -50 -30 -37 -76 -102 -102
-143 -35 -56 -45 -67 -41 -45 3 17 15 80 26 140 26 137 61 253 110 367 21 48
34 88 29 88 -5 0 -9 5 -9 11 0 6 6 9 14 6 8 -3 22 10 35 34 l22 39 70 0 c75 0
96 15 27 18 -114 6 -251 46 -366 107 -74 38 -232 159 -232 177 0 7 18 9 52 5
73 -9 275 9 426 38 189 36 452 129 429 152 -2 1 -41 -11 -87 -27 -45 -17 -84
-29 -87 -27 -8 9 250 276 383 397 228 206 226 203 155 248 -103 67 -318 270
-365 344 l-21 33 30 -19 c49 -32 86 -49 93 -41 4 3 -3 14 -15 23 -25 19 -73
119 -96 202 -33 117 -58 290 -42 290 3 0 27 -11 53 -24 119 -60 464 -157 692
-195 229 -37 516 -52 701 -36 l74 6 -25 -20 c-38 -30 -16 -37 43 -13 102 42
313 111 397 131 328 76 815 103 1005 56 57 -14 96 -16 215 -11 80 3 168 11
195 17 28 5 77 14 110 18 33 5 74 13 90 19 42 15 281 82 291 82 5 0 -25 -25
-66 -55 -77 -56 -296 -174 -379 -204 -46 -17 -131 -59 -131 -65 0 -1 15 -3 34
-4 71 -3 266 -86 346 -147 l35 -27 -35 6 c-19 3 -95 12 -169 21 -102 11 -136
12 -142 4 -11 -18 25 -43 148 -104 248 -123 461 -283 739 -556 160 -156 298
-321 491 -587 183 -251 399 -468 608 -612 l45 -31 0 193 0 193 -55 75 c-30 41
-50 76 -45 78 5 2 22 -4 39 -12 43 -23 61 -20 61 7 0 21 -14 30 -102 67 -175
74 -317 149 -365 193 -49 45 -124 150 -166 232 -23 46 -71 123 -321 518 -110
174 -119 210 -83 318 13 41 35 118 48 172 12 53 26 97 30 97 11 0 22 -105 15
-133 -3 -13 -14 -33 -25 -46 -33 -37 -56 -231 -28 -231 14 -1 48 -47 76 -105
24 -49 86 -110 132 -129 27 -10 42 -11 72 -2 43 12 50 29 15 34 -12 2 -31 10
-41 17 -23 16 -117 132 -117 144 0 4 -16 37 -35 73 l-34 65 27 68 c24 60 63
107 78 92 3 -3 6 -21 7 -41 1 -20 5 -36 10 -36 4 0 7 -7 7 -15 0 -8 4 -15 8
-15 5 0 14 -10 20 -22 l11 -23 1 25 c1 24 1 25 16 5 8 -11 13 -28 10 -38 -2
-11 -2 -16 1 -13 4 3 13 0 21 -6 11 -10 16 -9 23 5 12 21 29 22 29 2 0 -8 3
-15 8 -15 4 0 7 -22 7 -49 0 -27 3 -52 7 -56 3 -4 25 -9 47 -12 42 -6 61 -20
45 -32 -5 -3 -25 -24 -44 -45 -50 -56 -5 -30 71 40 32 30 63 54 69 54 25 0 7
19 -20 22 l-31 3 23 29 c50 63 64 76 88 78 31 4 39 -26 14 -53 -23 -26 -12
-34 25 -18 26 12 30 20 36 68 l7 56 28 -60 28 -60 22 49 c23 54 110 292 110
302 0 3 15 38 34 77 58 120 86 234 86 348 l0 99 -255 0 -255 0 0 -29 c0 -61
48 -393 66 -452 4 -14 -3 -15 -43 -12 -41 4 -139 -9 -245 -33 -19 -4 -28 -2
-28 6 0 33 56 224 92 313 22 56 49 126 59 155 l18 52 -111 0 c-99 0 -113 -2
-138 -22 -68 -54 -118 -88 -129 -88 -8 0 -12 13 -11 33 2 38 -9 77 -21 77 -5
0 -10 -11 -10 -25 -1 -14 -2 -30 -3 -36 0 -6 -20 -12 -43 -14 l-43 -3 0 39 c0
51 -18 50 -26 -2 -4 -22 -12 -43 -18 -45 -6 -2 -34 2 -62 9 -56 15 -94 7 -94
-18 0 -8 -4 -15 -10 -15 -5 0 -10 5 -10 11 0 5 -5 7 -10 4 -6 -4 -8 -11 -5
-16 4 -5 -1 -9 -9 -9 -8 0 -21 -6 -28 -13 -11 -11 -50 -14 -125 -9 -13 1 -22
8 -20 15 1 6 -3 11 -8 10 -18 -3 -9 47 10 61 10 7 19 22 20 33 1 18 -6 20
-103 22 -83 2 -102 -1 -96 -11 5 -10 4 -11 -7 0 -7 6 -35 12 -61 12 -32 0 -48
-4 -48 -12 0 -10 -2 -10 -9 0 -5 9 -26 12 -67 10 l-59 -3 -3 -37 c-3 -35 -1
-38 21 -38 21 0 24 -4 20 -22 -3 -17 -2 -19 5 -9 5 7 21 15 36 16 28 3 35 -9
10 -19 -8 -3 -12 -2 -9 4 3 6 1 10 -4 10 -6 0 -11 -7 -11 -15 0 -9 -10 -19
-22 -24 -13 -5 -32 -19 -43 -31 -26 -29 -140 -85 -191 -94 -21 -4 -54 -16 -71
-26 -50 -29 -139 -44 -215 -36 -38 4 -68 11 -68 14 0 12 154 159 173 165 9 4
17 11 17 18 0 6 20 34 45 62 25 29 45 55 45 59 0 5 -965 8 -2145 8 l-2145 0 0
-2262z m4783 2192 c-3 -12 -8 -19 -11 -16 -5 6 5 36 12 36 2 0 2 -9 -1 -20z
m590 -345 c-5 -7 -24 -31 -43 -52 -19 -21 -36 -45 -38 -53 -2 -8 -12 -24 -23
-36 -10 -11 -19 -28 -19 -37 0 -9 -4 -19 -10 -22 -17 -10 -11 52 6 66 9 7 31
36 49 64 44 67 68 94 77 89 5 -3 5 -11 1 -19z m324 -131 c-1 -1 -15 -4 -31 -8
-21 -5 -27 -4 -24 6 3 7 13 45 24 83 l19 70 7 -75 c3 -41 6 -75 5 -76z m77 0
c18 -7 12 -24 -10 -24 -8 0 -14 7 -14 15 0 17 2 18 24 9z m300 -20 c5 -14 4
-15 -9 -4 -17 14 -19 20 -6 20 5 0 12 -7 15 -16z m-37 -33 c14 -8 9 -9 -21 -4
-38 6 -42 4 -85 -44 l-46 -50 -50 13 -50 13 46 -4 c45 -4 48 -3 91 44 46 50
71 57 115 32z m-1094 -148 c3 -29 1 -53 -3 -53 -18 0 -30 30 -25 57 16 70 21
70 28 -4z m162 -7 c15 -8 34 -12 41 -9 8 3 14 0 14 -7 0 -7 8 -10 20 -7 13 3
21 -1 25 -14 8 -23 -12 -62 -27 -53 -7 4 -8 3 -4 -4 4 -7 2 -12 -4 -12 -6 0
-9 -4 -5 -9 3 -5 1 -12 -4 -15 -5 -4 -12 -2 -16 4 -10 17 -25 11 -34 -13 -5
-12 -22 -29 -37 -37 -16 -8 -31 -18 -34 -22 -8 -10 -78 -14 -87 -5 -14 14 -13
48 2 53 8 4 15 13 15 22 0 12 -3 13 -11 5 -9 -9 -15 -8 -25 2 -19 18 -18 35 2
35 8 0 12 -4 9 -10 -3 -5 -1 -10 4 -10 6 0 11 7 11 15 0 8 4 15 8 15 5 0 14
11 20 25 7 14 8 25 2 25 -5 0 -7 7 -4 15 4 8 10 13 14 10 5 -3 11 -1 15 5 9
15 58 12 90 -4z m925 -11 c0 -15 -6 -25 -14 -25 -22 0 -30 19 -16 35 18 22 30
18 30 -10z m-1152 -81 c14 -10 22 -25 22 -45 0 -16 -2 -29 -5 -29 -3 0 -23 11
-45 25 -36 23 -39 27 -28 45 15 24 26 25 56 4z m1107 -54 c3 -5 -1 -10 -9 -10
-9 0 -16 5 -16 10 0 6 4 10 9 10 6 0 13 -4 16 -10z m-466 -225 c28 -47 92
-151 142 -232 62 -101 89 -152 85 -166 -3 -13 2 -25 12 -33 15 -11 15 -17 -3
-79 -11 -38 -27 -73 -37 -78 -19 -12 -22 -9 -153 161 l-85 112 0 112 c1 62 -4
137 -9 167 -11 55 -15 121 -6 121 2 0 27 -38 54 -85z m-4938 -2548 c-10 -9
-11 -8 -5 6 3 10 9 15 12 12 3 -3 0 -11 -7 -18z"/>
<path d="M5036 6485 c16 -40 71 -45 111 -10 l28 24 -72 1 c-61 0 -71 -2 -67
-15z"/>
<path d="M5034 6448 c3 -15 26 -23 26 -8 0 6 -4 9 -9 6 -5 -4 -12 -1 -14 4 -3
6 -4 5 -3 -2z"/>
<path d="M5831 5634 c0 -11 3 -14 6 -6 3 7 2 16 -1 19 -3 4 -6 -2 -5 -13z"/>
<path d="M6260 5481 c0 -12 28 -22 35 -12 3 5 -2 12 -11 15 -21 8 -24 8 -24
-3z"/>
<path d="M2783 4815 c1 -11 -3 -26 -7 -34 -7 -11 -5 -13 9 -7 11 4 22 2 27 -6
6 -10 8 -9 8 4 0 9 -6 21 -14 25 -7 4 -16 15 -19 23 -5 10 -6 9 -4 -5z"/>
<path d="M2390 4655 c7 -9 15 -13 17 -11 7 7 -7 26 -19 26 -6 0 -6 -6 2 -15z"/>
<path d="M2417 4623 c-10 -9 -9 -23 2 -23 5 0 11 7 15 15 5 15 -5 20 -17 8z"/>
<path d="M2440 4590 c0 -5 5 -10 11 -10 5 0 7 5 4 10 -3 6 -8 10 -11 10 -2 0
-4 -4 -4 -10z"/>
<path d="M2390 4580 c0 -5 5 -10 10 -10 6 0 10 5 10 10 0 6 -4 10 -10 10 -5 0
-10 -4 -10 -10z"/>
<path d="M2174 4512 c-35 -46 -39 -58 -28 -86 9 -23 19 -20 57 14 19 16 46 34
60 39 26 10 38 31 18 31 -5 0 -11 10 -13 23 -2 17 -10 22 -32 22 -22 1 -36 -9
-62 -43z"/>
<path d="M2410 4546 c0 -8 4 -17 9 -20 5 -4 7 3 4 14 -6 23 -13 26 -13 6z"/>
<path d="M2435 4550 c-3 -6 1 -7 9 -4 18 7 21 14 7 14 -6 0 -13 -4 -16 -10z"/>
<path d="M2710 4523 c8 -3 19 -11 23 -17 6 -7 7 -6 4 4 -2 8 -12 16 -23 17
-13 2 -15 1 -4 -4z"/>
<path d="M2830 4482 c0 -7 -10 -12 -22 -13 -22 0 -22 -1 -3 -8 20 -8 44 13 31
26 -3 4 -6 1 -6 -5z"/>
<path d="M3495 4455 c-4 -11 -18 -45 -30 -75 -13 -30 -33 -89 -45 -130 -28
-94 -78 -220 -95 -240 -7 -8 -11 -20 -8 -26 6 -17 -35 -105 -62 -132 -14 -14
-25 -31 -25 -39 0 -8 -5 -11 -12 -7 -8 5 -9 2 -4 -12 4 -10 4 -15 0 -12 -11
11 -45 -28 -38 -45 5 -14 -27 -43 -37 -32 -2 2 -5 -8 -5 -21 -1 -14 -9 -33
-18 -43 -9 -10 -16 -23 -16 -29 0 -7 -11 -12 -25 -12 -25 0 -55 -41 -55 -75 0
-8 -4 -15 -8 -15 -13 0 -34 -78 -26 -92 4 -6 3 -8 -4 -4 -5 3 -12 0 -15 -6 -7
-24 5 -47 26 -50 29 -4 33 -33 8 -55 -15 -12 -17 -19 -9 -24 9 -6 8 -12 -3
-26 -8 -10 -21 -31 -29 -48 -8 -16 -21 -34 -28 -38 -9 -6 -10 -12 -2 -21 8
-10 5 -12 -14 -9 -23 5 -64 65 -58 86 1 5 -1 6 -6 3 -4 -2 -20 15 -35 39 -27
41 -61 63 -73 44 -3 -5 0 -9 6 -9 6 0 9 -4 6 -9 -4 -5 0 -12 6 -14 7 -3 0 -6
-17 -6 -20 0 -26 2 -17 8 11 7 11 11 -2 24 -10 9 -16 33 -16 59 0 30 -3 39 -9
29 -5 -8 -8 -33 -6 -55 27 -277 32 -306 47 -303 14 3 26 -37 26 -83 0 -30 -1
-32 -7 -10 -5 18 -9 21 -15 12 -15 -25 13 -170 100 -502 4 -14 10 -29 15 -35
4 -5 29 -66 55 -135 26 -69 50 -127 53 -130 3 -3 28 -48 55 -100 82 -158 245
-383 343 -473 24 -22 42 -42 40 -44 -9 -9 -158 53 -232 96 -79 46 -193 149
-264 240 -46 58 -53 35 -9 -27 19 -26 53 -78 76 -117 23 -38 61 -98 83 -133
23 -35 39 -65 37 -68 -7 -6 -181 173 -246 251 -107 131 -196 269 -302 469 -34
64 -65 115 -67 112 -10 -10 106 -234 181 -351 136 -209 332 -431 473 -536 66
-50 88 -50 41 -1 -33 34 -168 233 -168 247 0 4 19 -9 43 -28 106 -87 274 -170
332 -166 17 2 44 -5 62 -14 50 -27 50 -20 -3 26 -105 91 -106 93 -102 177 4
61 11 90 41 151 37 78 111 173 130 166 6 -2 18 -17 27 -33 22 -38 55 -41 120
-10 l52 25 77 -26 c100 -33 291 -125 314 -151 16 -18 16 -21 2 -35 -8 -9 -15
-25 -15 -37 0 -54 -69 -163 -182 -285 -52 -57 -62 -71 -35 -50 68 50 186 187
221 255 18 36 36 84 39 107 5 39 2 45 -26 69 -41 34 -235 127 -322 154 -38 12
-101 23 -140 25 l-70 4 50 -13 50 -13 -40 -17 c-52 -22 -79 -18 -84 14 -1 14
-8 28 -14 32 -29 18 -119 -64 -166 -151 -36 -69 -65 -165 -58 -197 7 -39 -8
-28 -66 49 -118 157 -205 309 -291 512 -62 148 -166 469 -166 516 0 32 93 199
110 199 6 0 12 11 16 25 7 29 10 29 44 10 l25 -14 -25 -10 c-14 -5 -18 -10 -9
-10 8 -1 20 4 26 10 14 14 73 -6 73 -23 0 -6 7 -8 15 -4 8 3 87 -12 175 -34
167 -42 209 -48 150 -24 -27 11 -29 13 -8 9 30 -6 78 9 78 25 0 5 -8 10 -17
10 -14 0 -14 3 3 23 21 23 54 73 54 81 0 2 -15 8 -32 12 l-33 7 45 13 c53 14
17 19 -42 5 -21 -5 -38 -5 -38 0 0 15 39 30 64 23 13 -3 33 -1 44 5 43 23 37
178 -8 242 -11 15 -20 29 -20 32 0 3 23 -4 52 -15 29 -11 64 -21 78 -23 14 -2
69 -29 121 -60 l94 -57 -75 78 c-41 44 -92 96 -115 117 l-40 37 40 -16 c65
-26 72 -27 50 -9 -54 46 -340 158 -438 171 -26 4 -47 11 -47 15 0 5 5 9 11 9
5 0 8 4 5 9 -4 5 23 78 59 161 36 84 68 163 71 177 7 25 8 25 98 21 74 -3 102
-9 151 -32 l60 -29 44 -99 c30 -68 55 -152 82 -268 51 -227 102 -397 150 -500
l40 -84 -11 -136 c-5 -74 -10 -159 -10 -187 0 -55 14 -70 29 -31 6 17 9 9 14
-36 3 -32 8 -60 11 -63 10 -10 75 38 123 91 72 79 127 153 183 247 52 88 56
90 40 24 -15 -60 -24 -185 -14 -185 5 0 17 12 26 28 l17 27 1 -51 c0 -58 9
-114 19 -114 12 0 109 165 149 255 88 196 133 331 171 521 18 87 50 326 51
374 0 8 36 -66 79 -165 43 -99 88 -199 99 -222 29 -56 28 -59 -12 -28 -41 31
-136 69 -136 55 0 -6 5 -10 12 -10 6 0 47 -21 90 -46 l79 -47 64 -127 c35 -70
61 -130 58 -134 -4 -3 -16 -7 -27 -7 -15 -1 -13 -4 9 -9 18 -5 -27 -8 -115 -9
-159 -1 -219 -12 -325 -60 -49 -22 -63 -34 -59 -45 4 -11 14 -14 30 -10 28 7
30 2 9 -30 -36 -55 -62 -212 -46 -274 12 -42 41 -66 109 -86 35 -11 26 10 -13
28 -26 12 -35 23 -35 41 0 25 12 39 24 28 10 -11 37 -16 93 -17 34 -1 49 2 43
8 -20 20 -9 29 30 23 38 -5 69 11 53 26 -3 4 -1 7 5 7 15 0 16 -27 1 -35 -6
-4 -8 -14 -5 -22 4 -11 2 -13 -9 -9 -9 3 -15 0 -15 -9 0 -8 -4 -15 -10 -15 -5
0 -10 -7 -10 -15 0 -8 8 -15 18 -15 33 0 65 -25 69 -52 5 -40 -33 -47 -108
-21 -33 11 -59 18 -59 14 0 -7 229 -132 264 -145 11 -4 -1 11 -25 33 l-44 39
39 7 c28 6 52 21 83 53 24 26 41 52 39 58 -3 7 0 15 7 18 7 3 -7 5 -30 3 -23
-1 -39 1 -37 4 2 4 -2 10 -8 12 -8 3 -6 6 5 6 10 1 16 5 13 10 -3 5 1 14 9 21
12 10 15 9 15 -4 0 -11 9 -16 30 -16 23 0 31 5 36 25 3 13 12 29 19 35 9 7 12
31 9 73 l-3 62 24 -95 c13 -52 27 -119 31 -148 6 -50 5 -54 -36 -107 -24 -31
-56 -67 -72 -80 -38 -32 -25 -37 46 -14 67 20 76 18 76 -16 0 -13 5 -25 10
-27 6 -2 15 -63 20 -137 10 -127 9 -136 -11 -178 -11 -24 -18 -50 -15 -58 3
-8 -15 -50 -41 -92 -25 -43 -81 -148 -124 -234 -85 -169 -144 -257 -211 -311
-154 -125 -587 -323 -868 -397 -338 -88 -431 -92 -576 -22 -49 23 -116 52
-149 63 -33 12 -102 43 -154 70 -51 26 -96 48 -100 48 -11 0 54 -50 91 -70 49
-26 53 -36 32 -76 l-18 -33 27 -29 c16 -16 27 -33 26 -38 -4 -21 3 -34 36 -70
19 -22 35 -42 35 -46 0 -4 9 -9 19 -13 11 -3 22 -13 25 -21 5 -12 1 -14 -17
-9 -12 3 -17 3 -11 -2 6 -4 10 -19 9 -31 -1 -13 4 -26 12 -29 21 -8 3 -24 -19
-17 -14 4 -18 2 -14 -5 4 -6 0 -11 -8 -11 -9 0 -16 4 -16 10 0 5 -7 7 -15 3
-13 -5 -13 -8 5 -20 11 -8 24 -12 29 -9 5 3 12 -1 15 -9 3 -8 9 -14 14 -13 12
4 90 -82 98 -107 11 -31 36 -46 53 -32 12 10 13 9 6 -3 -5 -9 0 -8 13 4 20 18
22 18 22 1 0 -11 5 -15 15 -11 11 4 15 -2 15 -22 1 -24 2 -25 11 -9 10 17 12
17 26 -10 16 -30 23 -227 9 -270 -7 -22 -5 -23 40 -23 40 0 72 13 201 80 84
44 156 80 158 80 3 0 -1 -11 -10 -23 -8 -13 -33 -30 -54 -37 -26 -8 -38 -17
-34 -26 3 -10 -13 -23 -51 -40 -31 -14 -56 -27 -56 -28 0 -8 260 -5 292 3 23
5 36 5 32 0 -3 -6 383 -8 958 -7 848 3 963 5 963 18 0 8 5 15 12 15 6 0 15 3
19 7 4 5 2 8 -4 8 -7 0 -12 5 -12 11 0 5 5 7 10 4 6 -3 13 1 16 9 3 9 17 16
31 16 13 0 33 5 44 11 15 8 31 6 65 -7 24 -9 44 -18 44 -20 0 -1 -9 -19 -21
-38 l-21 -36 161 0 161 0 0 80 c0 77 -1 80 -19 70 -11 -5 -32 -15 -47 -20 -23
-9 -19 -4 19 30 46 41 47 43 47 102 0 54 -2 59 -19 53 -11 -3 -36 -7 -56 -9
-68 -6 -148 -111 -115 -151 6 -8 19 -11 27 -8 11 4 14 2 9 -5 -4 -7 -23 -12
-41 -12 -41 0 -55 20 -55 82 0 33 -5 46 -21 56 -18 12 -20 11 -15 -5 3 -10 2
-24 -3 -31 -10 -17 -38 -5 -44 19 -3 11 -14 19 -25 19 -40 0 -36 -101 3 -117
9 -3 28 0 42 6 34 15 27 -8 -8 -28 -51 -29 -119 13 -119 73 0 37 32 86 57 86
13 0 13 3 3 15 -7 8 -8 15 -3 15 15 0 -2 81 -18 91 -12 7 -12 9 0 9 11 0 11 4
-2 22 -8 13 -20 22 -26 21 -18 -5 -13 3 28 49 22 23 35 45 30 49 -10 6 22 53
56 81 12 10 24 13 29 7 17 -16 34 -10 71 22 35 31 36 31 81 19 47 -13 49 -16
112 -120 l22 -35 -3 94 -2 95 -116 31 c-82 22 -138 44 -188 74 -39 24 -86 49
-104 55 -17 6 -38 15 -46 20 -7 5 -28 10 -45 12 -17 1 -101 14 -186 28 -85 15
-171 29 -190 31 -79 10 -303 23 -316 18 -24 -9 -26 24 -4 67 45 89 145 155
292 192 91 23 108 22 378 -13 96 -12 193 -22 216 -21 38 2 42 -1 73 -47 32
-51 97 -121 109 -120 20 3 23 -3 11 -18 -13 -16 -12 -17 3 -4 10 7 15 18 11
25 -4 6 1 5 10 -2 9 -8 20 -11 26 -8 5 3 23 -11 39 -32 l31 -37 0 264 1 265
-27 28 c-15 15 -35 28 -45 28 -10 0 -44 9 -76 20 -80 28 -215 49 -294 46 -62
-3 -72 -7 -115 -42 -93 -75 -146 -130 -175 -181 -32 -56 -71 -83 -122 -83 -30
0 -28 3 69 101 96 97 232 209 255 209 6 0 21 6 33 14 50 31 235 51 313 33 34
-8 105 -47 147 -79 l37 -30 0 29 c0 43 -102 99 -207 114 -43 6 -82 14 -87 19
-4 4 -19 40 -32 79 -27 80 -139 272 -195 334 -21 23 -38 37 -39 30 0 -6 5 -15
10 -18 23 -14 92 -134 107 -185 37 -126 14 -255 -50 -281 -44 -18 -163 -105
-221 -161 -53 -52 -56 -54 -56 -35 0 6 -5 19 -10 27 -9 13 -11 13 -19 0 -6 -8
-6 -17 -2 -20 5 -3 11 -14 15 -25 10 -33 -123 -158 -191 -179 -71 -23 -157
-82 -221 -149 -54 -57 -72 -91 -72 -132 0 -18 -35 -55 -53 -55 -3 0 2 26 10
58 21 88 18 339 -6 499 -18 122 -19 136 -5 170 23 55 98 183 107 183 4 0 6
-123 5 -272 -2 -210 0 -285 11 -323 20 -70 31 -78 30 -20 -1 39 -3 44 -8 25
-16 -52 -23 109 -12 258 24 319 20 544 -14 814 -17 130 -65 377 -94 483 -11
38 -17 74 -15 80 3 7 -4 30 -15 51 -11 22 -33 71 -49 109 -17 39 -75 165 -129
280 -55 116 -125 271 -155 345 l-56 135 -6 155 c-4 85 -8 164 -10 175 -9 75
-20 126 -28 131 -6 4 -8 -1 -5 -12 16 -52 24 -471 11 -541 -8 -45 -29 -61 -46
-34 -7 12 -19 21 -26 21 -8 0 -12 5 -10 12 7 21 25 20 31 -2 3 -11 10 -20 16
-20 17 0 13 18 -10 41 -16 16 -27 19 -52 13 -40 -8 -49 -13 -42 -24 3 -5 -3
-14 -13 -19 -11 -6 -25 -31 -32 -58 -7 -26 -19 -57 -27 -68 -20 -30 -15 -41 7
-17 21 22 36 30 26 13 -7 -11 17 -21 50 -21 14 0 27 -7 31 -16 5 -12 7 -13 14
-3 4 8 3 16 -2 20 -7 4 -4 9 6 12 9 4 13 3 10 -3 -3 -6 -1 -10 6 -10 8 0 8 -4
-2 -16 -8 -10 -9 -18 -3 -22 20 -13 23 -41 6 -45 -14 -4 -13 -5 3 -6 18 -1 18
-2 -3 -17 -25 -17 -30 -39 -7 -30 28 10 28 -23 0 -136 -42 -174 -139 -443
-156 -433 -8 6 -13 -8 -10 -28 0 -4 -20 -48 -46 -99 l-48 -92 -3 74 c-2 40 2
86 7 101 16 46 -5 43 -33 -3 l-26 -43 6 35 c3 19 14 71 25 115 17 77 43 201
52 258 6 38 -10 34 -18 -5 -4 -18 -11 -37 -15 -43 -4 -5 -13 -28 -20 -50 -45
-141 -231 -427 -329 -504 -37 -29 -40 -30 -46 -12 -3 10 -6 49 -7 87 -1 59 -3
65 -15 49 -11 -16 -13 -8 -13 61 0 44 4 127 9 185 13 136 22 544 11 499 -6
-29 -23 -294 -22 -350 0 -8 -2 -28 -5 -45 -5 -25 -10 -16 -29 60 -13 50 -37
155 -54 235 -17 80 -41 192 -54 250 -13 58 -29 137 -35 175 -13 80 -42 188
-48 181 -2 -2 3 -44 11 -92 9 -49 16 -98 15 -109 l0 -20 -8 20 c-5 11 -11 45
-15 75 -4 30 -16 109 -27 175 -10 66 -21 156 -23 200 -7 132 -18 235 -27 241
-12 7 -11 -177 1 -245 5 -31 16 -117 25 -191 8 -74 18 -146 21 -160 21 -93
-103 228 -162 418 -20 67 -42 122 -47 122 -5 0 -6 -16 -2 -37 6 -34 109 -349
130 -396 7 -16 0 -15 -46 9 -44 23 -71 28 -144 32 l-91 4 59 182 c32 99 65
195 74 212 8 18 13 40 11 50 -5 18 -5 18 -13 -1z m303 -795 c0 -22 -1 -22 -8
5 -4 17 -8 39 -8 50 0 16 2 15 8 -5 4 -14 8 -36 8 -50z m850 42 c2 -7 -3 -12
-12 -12 -9 0 -16 7 -16 16 0 17 22 14 28 -4z m-1491 -52 c-13 -35 -28 -41 -19
-7 4 18 18 36 29 37 1 0 -4 -13 -10 -30z m1443 10 c0 -5 -4 -10 -10 -10 -5 0
-10 5 -10 10 0 6 5 10 10 10 6 0 10 -4 10 -10z m-793 -62 c-3 -8 -6 -5 -6 6
-1 11 2 17 5 13 3 -3 4 -12 1 -19z m-562 -297 c-6 -5 -25 10 -25 20 0 5 6 4
14 -3 8 -7 12 -15 11 -17z m-163 -20 c2 -7 -5 -15 -14 -16 -10 -2 -18 1 -18 6
0 5 4 9 9 9 5 0 7 10 4 23 -3 17 -2 19 6 7 5 -9 11 -22 13 -29z m-342 -31 c0
-5 -2 -10 -4 -10 -3 0 -8 5 -11 10 -3 6 -1 10 4 10 6 0 11 -4 11 -10z m84 -35
l6 -30 -14 25 c-8 14 -12 28 -9 33 7 11 9 7 17 -28z m-66 -3 c6 -18 -15 -14
-22 4 -4 10 -1 14 6 12 6 -2 14 -10 16 -16z m362 -7 c0 -8 -6 -15 -14 -15 -20
0 -29 17 -14 23 22 9 28 7 28 -8z m226 -1 c-18 -18 -21 -40 -6 -49 16 -10 12
-25 -6 -25 -9 0 -14 -6 -11 -13 8 -20 -9 -42 -33 -43 -11 -1 -20 2 -20 7 0 4
-3 14 -6 23 -4 12 0 16 16 16 25 0 56 26 39 32 -7 2 -9 15 -4 36 5 23 12 32
27 32 18 0 18 -1 4 -16z m-303 -13 c-12 -10 -19 -22 -15 -26 4 -5 2 -5 -5 -2
-19 11 -3 47 21 47 l21 -1 -22 -18z m-263 -13 c0 -4 -4 -8 -9 -8 -6 0 -12 4
-15 8 -3 5 1 9 9 9 8 0 15 -4 15 -9z m445 2 c-3 -5 -11 -10 -16 -10 -6 0 -7 5
-4 10 3 6 11 10 16 10 6 0 7 -4 4 -10z m165 -14 c0 -3 -4 -8 -10 -11 -5 -3
-10 -1 -10 4 0 6 5 11 10 11 6 0 10 -2 10 -4z m-643 -23 c-4 -3 -2 -12 3 -18
8 -9 6 -14 -5 -19 -10 -3 -15 1 -15 13 0 17 8 31 18 31 3 0 2 -3 -1 -7z m703
-7 c0 -9 -30 -14 -35 -6 -4 6 3 10 14 10 12 0 21 -2 21 -4z m-703 -78 c-3 -8
-6 -5 -6 6 -1 11 2 17 5 13 3 -3 4 -12 1 -19z m230 0 c-3 -8 -6 -5 -6 6 -1 11
2 17 5 13 3 -3 4 -12 1 -19z m208 10 c20 -9 31 -9 45 0 16 10 24 7 50 -14 16
-14 30 -31 30 -37 0 -6 10 -21 21 -33 29 -31 19 -57 -16 -44 -14 5 -89 26
-168 46 -78 20 -143 37 -145 39 -2 2 16 15 40 29 47 28 101 33 143 14z m274
-24 c2 -2 -5 -4 -17 -4 -15 0 -22 -6 -22 -19 0 -23 -30 -37 -42 -19 -25 37
-28 47 -15 51 13 6 89 -2 96 -9z m-152 -120 c-3 -3 -12 -4 -19 -1 -8 3 -5 6 6
6 11 1 17 -2 13 -5z m40 -10 c-3 -3 -12 -4 -19 -1 -8 3 -5 6 6 6 11 1 17 -2
13 -5z m-570 -36 c-3 -7 -5 -2 -5 12 0 14 2 19 5 13 2 -7 2 -19 0 -25z m2370
-36 c11 -9 24 -33 28 -52 l6 -35 -16 30 c-9 17 -26 40 -37 53 -25 26 -12 29
19 4z m-166 -128 c13 -14 17 -23 9 -19 -13 5 -46 45 -37 45 2 0 14 -11 28 -26z
m-324 -26 c-3 -8 -6 -5 -6 6 -1 11 2 17 5 13 3 -3 4 -12 1 -19z m273 -4 c0 -8
-5 -12 -10 -9 -6 4 -8 11 -5 16 9 14 15 11 15 -7z m-260 -24 c0 -5 -2 -10 -4
-10 -3 0 -8 5 -11 10 -3 6 -1 10 4 10 6 0 11 -4 11 -10z m168 -4 c-7 -8 -15
-12 -17 -11 -5 6 10 25 20 25 5 0 4 -6 -3 -14z m96 -11 c3 -8 1 -15 -4 -15 -6
0 -10 7 -10 15 0 8 2 15 4 15 2 0 6 -7 10 -15z m85 -29 c10 -11 8 -16 -9 -21
-17 -5 -19 -9 -9 -21 17 -21 2 -31 -18 -12 -10 11 -13 25 -9 42 7 29 27 34 45
12z m38 8 c-3 -3 -12 -4 -19 -1 -8 3 -5 6 6 6 11 1 17 -2 13 -5z m-180 -86
c-3 -8 -6 -5 -6 6 -1 11 2 17 5 13 3 -3 4 -12 1 -19z m147 -10 c-5 -7 -7 -25
-6 -40 3 -41 -34 -39 -52 2 -7 17 -15 27 -19 23 -4 -3 -7 -1 -7 6 0 9 9 11 29
6 17 -3 32 -2 36 4 3 6 11 11 16 11 6 0 7 -5 3 -12z m1109 -711 c10 -18 19
-46 20 -62 2 -28 0 -30 -33 -26 -44 4 -54 10 -42 24 6 7 13 31 17 55 4 23 10
42 14 42 3 0 14 -15 24 -33z m-983 -278 c0 -6 -4 -7 -10 -4 -5 3 -10 11 -10
16 0 6 5 7 10 4 6 -3 10 -11 10 -16z m-27 -24 c-3 -9 -8 -14 -10 -11 -3 3 -2
9 2 15 9 16 15 13 8 -4z m54 -315 c-3 -66 -12 -144 -23 -182 -16 -58 -21 -68
-41 -68 -12 0 -27 9 -33 20 -8 15 -8 20 2 18 6 -2 12 2 13 7 0 6 9 24 21 40
11 17 20 39 19 50 0 11 3 32 6 47 6 21 4 25 -7 21 -8 -3 -14 0 -14 6 0 6 5 11
11 11 5 0 9 8 7 18 -1 9 1 22 5 29 4 6 1 18 -6 25 -12 11 -12 18 -1 45 16 38
17 46 5 38 -5 -3 -12 -1 -16 5 -4 6 -11 8 -16 5 -5 -4 -9 -1 -9 5 0 7 8 9 19
5 17 -5 21 2 32 52 l13 58 9 -70 c5 -38 6 -122 4 -185z m-117 160 c0 -5 -2
-10 -4 -10 -3 0 -8 5 -11 10 -3 6 -1 10 4 10 6 0 11 -4 11 -10z m1015 -19 c3
-5 1 -12 -5 -16 -5 -3 -10 1 -10 9 0 18 6 21 15 7z m-1054 -48 c13 -16 12 -17
-3 -4 -17 13 -22 21 -14 21 2 0 10 -8 17 -17z m1059 7 c0 -5 -4 -10 -10 -10
-5 0 -10 5 -10 10 0 6 5 10 10 10 6 0 10 -4 10 -10z m-1085 -30 c3 -5 1 -10
-4 -10 -6 0 -11 5 -11 10 0 6 2 10 4 10 3 0 8 -4 11 -10z m-15 -35 c22 -26 6
-35 -19 -10 -17 18 -19 25 -8 25 8 0 20 -7 27 -15z m1348 -20 c21 -33 20 -43
-4 -27 -11 7 -34 45 -34 56 0 16 17 2 38 -29z m-1317 2 c-10 -9 -11 -8 -5 6 3
10 9 15 12 12 3 -3 0 -11 -7 -18z m103 -23 c3 -8 2 -12 -4 -9 -6 3 -10 10 -10
16 0 14 7 11 14 -7z m-144 2 c0 -3 -4 -8 -10 -11 -5 -3 -10 -1 -10 4 0 6 5 11
10 11 6 0 10 -2 10 -4z m-48 -84 c-3 -8 2 -10 14 -6 14 4 15 3 6 -4 -19 -13
-10 -48 11 -44 9 2 17 -2 17 -8 0 -5 -13 -10 -30 -10 -16 0 -30 -4 -30 -8 0
-7 -42 -33 -60 -37 -3 0 -15 -6 -27 -13 -28 -15 -29 -7 -4 51 10 24 24 69 30
99 l12 55 32 -31 c18 -17 31 -37 29 -44z m18 68 c0 -5 -10 -10 -22 -9 -22 0
-22 1 -3 9 11 5 21 9 23 9 1 1 2 -3 2 -9z m140 6 c0 -3 -4 -8 -10 -11 -5 -3
-10 -1 -10 4 0 6 5 11 10 11 6 0 10 -2 10 -4z m-261 -83 c-10 -38 -19 -72 -19
-78 0 -5 -4 -4 -9 4 -7 11 -11 5 -16 -23 -5 -25 -15 -40 -29 -45 -11 -5 -151
-38 -311 -75 -159 -36 -336 -79 -393 -95 -56 -16 -105 -25 -108 -20 -3 5 1 11
8 13 7 2 90 25 183 52 263 74 435 150 620 273 50 33 91 61 92 61 1 0 -7 -30
-18 -67z m151 57 c0 -5 -4 -10 -10 -10 -5 0 -10 5 -10 10 0 6 5 10 10 10 6 0
10 -4 10 -10z m85 -10 c-3 -5 -11 -10 -16 -10 -6 0 -7 5 -4 10 3 6 11 10 16
10 6 0 7 -4 4 -10z m-38 -42 c-3 -7 -5 -2 -5 12 0 14 2 19 5 13 2 -7 2 -19 0
-25z m13 -63 c0 -8 -2 -15 -4 -15 -2 0 -6 7 -10 15 -3 8 -1 15 4 15 6 0 10 -7
10 -15z m-15 -35 c3 -6 -1 -7 -9 -4 -18 7 -21 14 -7 14 6 0 13 -4 16 -10z
m-32 -85 c19 -32 24 -49 17 -58 -6 -7 -19 -24 -29 -38 -32 -42 -95 -79 -150
-88 -65 -10 -65 -5 -4 96 87 147 120 164 166 88z m37 30 c0 -8 -2 -15 -4 -15
-2 0 -6 7 -10 15 -3 8 -1 15 4 15 6 0 10 -7 10 -15z m606 -27 c4 -7 4 -10 -1
-6 -4 4 -15 2 -24 -5 -14 -11 -14 -10 -2 6 16 20 18 21 27 5z m-569 -10 c3 6
9 12 15 12 6 0 6 -6 -2 -15 -16 -20 -36 -19 -44 1 -6 15 -4 15 10 3 13 -11 18
-11 21 -1z m-1832 -38 c3 -5 1 -10 -4 -10 -6 0 -11 5 -11 10 0 6 2 10 4 10 3
0 8 -4 11 -10z m2662 -16 c-3 -3 -12 -4 -19 -1 -8 3 -5 6 6 6 11 1 17 -2 13
-5z m-667 -309 c-80 -55 -185 -126 -233 -159 -47 -32 -84 -63 -81 -67 3 -5 23
-9 45 -9 37 0 39 2 39 30 0 27 3 30 30 30 27 0 29 -2 24 -30 -6 -26 -4 -30 16
-30 13 0 32 7 42 16 14 14 20 14 33 4 28 -23 15 -30 -55 -30 -68 0 -70 -1 -70
-25 0 -19 5 -25 23 -25 13 0 28 5 35 12 9 9 18 9 38 -1 20 -9 24 -15 16 -23
-7 -7 -12 -30 -12 -53 0 -43 -22 -85 -45 -85 -8 0 -25 11 -39 24 l-24 25 27 3
c23 3 26 8 29 46 3 41 2 42 -27 42 -22 0 -31 -5 -31 -16 0 -31 -34 -87 -64
-105 -47 -29 -64 -24 -33 9 31 32 47 79 47 133 0 35 -2 37 -37 42 -52 6 -103
-31 -103 -75 0 -29 -2 -30 -32 -25 -32 6 -32 5 7 -13 22 -11 45 -20 52 -20 17
0 -8 -50 -26 -50 -7 0 -29 17 -48 38 l-35 37 4 -45 c3 -43 2 -45 -24 -48 -25
-3 -28 0 -28 27 l0 31 -37 -20 c-63 -34 -79 -25 -32 17 41 37 41 38 18 44 -16
3 -23 12 -22 25 5 37 -9 92 -24 98 -10 4 -30 -9 -57 -37 -41 -43 -145 -97
-185 -97 -24 0 -25 -3 -10 -32 9 -17 8 -24 -6 -34 -10 -8 -22 -11 -26 -8 -5 3
-9 1 -9 -4 0 -5 -8 -12 -17 -16 -10 -3 -29 -10 -42 -16 -21 -9 -22 -8 -11 5 7
8 16 13 20 10 5 -3 17 5 27 18 10 13 21 24 26 24 27 4 32 11 21 29 -8 13 -23
19 -50 20 -53 1 -112 22 -124 44 -8 15 9 28 128 97 194 114 372 222 408 250
17 12 33 23 36 23 3 0 8 -14 12 -32 3 -18 18 -44 31 -58 l26 -27 -25 -25 c-14
-13 -50 -33 -81 -43 -93 -32 -112 -75 -33 -75 36 0 40 2 35 21 -4 15 -2 19 10
15 8 -3 24 -6 35 -6 14 0 18 -5 14 -15 -4 -11 2 -15 24 -15 16 0 32 5 35 11 4
6 14 8 22 5 13 -5 77 36 408 267 l120 84 10 -31 10 -31 -145 -100z m-1885 15
c-5 -17 -10 -19 -18 -11 -9 9 -8 14 2 20 8 5 10 14 6 22 -6 11 -5 11 5 3 7 -7
9 -21 5 -34z m1724 14 c-15 -18 -22 -13 -13 10 3 9 10 13 16 10 5 -3 4 -12 -3
-20z m-1698 -43 c-6 -10 -8 -21 -5 -23 2 -3 -8 -3 -23 0 -23 5 -24 7 -8 10 11
2 24 10 28 18 12 21 19 17 8 -5z m806 -225 c-2 -6 -15 -15 -29 -20 -23 -8 -34
0 -123 88 -72 72 -91 97 -75 94 13 -2 25 3 27 10 3 6 0 12 -6 12 -6 0 -11 7
-11 16 0 9 46 -27 110 -87 61 -56 109 -107 107 -113z m683 134 c-32 -25 -36
-25 -43 0 -4 17 0 20 31 20 l37 0 -25 -20z m508 -106 c16 -11 22 -25 22 -53 0
-49 -20 -65 -76 -66 l-44 0 0 -42 c0 -24 5 -43 13 -46 6 -3 -10 -6 -38 -6 -30
0 -45 3 -37 8 10 6 13 35 10 115 l-3 106 65 0 c43 0 73 -5 88 -16z m478 5 c3
-6 -1 -18 -10 -27 -15 -15 -17 -15 -32 0 -19 19 -11 38 16 38 10 0 22 -5 26
-11z m-288 -86 c4 -27 -15 -30 -33 -6 -11 15 -15 15 -29 4 -20 -17 -23 -117
-3 -124 6 -3 -8 -6 -32 -6 -35 -1 -42 2 -33 11 16 16 16 115 0 124 -17 11 24
20 82 19 39 0 45 -3 48 -22z m147 21 c25 -10 47 -62 40 -95 -20 -89 -165 -74
-165 18 0 61 64 100 125 77z m138 -76 c6 -101 -5 -132 -48 -136 -37 -3 -60 11
-52 32 9 22 24 20 30 -5 3 -12 10 -18 16 -14 16 9 15 185 -1 186 -11 1 23 15
43 18 4 1 9 -36 12 -81z m180 64 c9 -10 18 -29 19 -43 3 -22 0 -24 -49 -27
-57 -3 -58 -4 -43 -33 12 -21 50 -25 68 -7 6 6 15 8 19 4 5 -4 -3 -16 -16 -27
-53 -43 -131 -7 -131 60 0 55 31 91 79 91 24 0 44 -7 54 -18z m-1893 -242
c-20 -13 -33 -13 -25 0 3 6 14 10 23 10 15 0 15 -2 2 -10z"/>
<path d="M4735 331 c-10 -18 17 -23 33 -7 15 15 15 16 -5 16 -12 0 -24 -4 -28
-9z"/>
<path d="M4653 319 c14 -8 22 -8 30 0 8 8 3 11 -18 11 -26 -1 -28 -2 -12 -11z"/>
<path d="M4650 290 c0 -5 6 -10 14 -10 8 0 18 5 21 10 3 6 -3 10 -14 10 -12 0
-21 -4 -21 -10z"/>
<path d="M4660 245 c0 -8 5 -15 10 -15 6 0 10 7 10 15 0 8 -4 15 -10 15 -5 0
-10 -7 -10 -15z"/>
<path d="M4740 245 c0 -8 5 -15 10 -15 6 0 10 7 10 15 0 8 -4 15 -10 15 -5 0
-10 -7 -10 -15z"/>
<path d="M5260 294 l0 -55 33 3 c29 3 32 6 35 41 4 45 -11 67 -44 67 -22 0
-24 -4 -24 -56z"/>
<path d="M5632 268 c-27 -27 -7 -128 27 -128 32 0 42 80 15 118 -17 25 -25 27
-42 10z"/>
<path d="M5930 251 c-15 -29 -13 -31 25 -31 35 0 40 5 29 34 -8 22 -41 20 -54
-3z"/>
<path d="M2718 4423 c7 -3 16 -2 19 1 4 3 -2 6 -13 5 -11 0 -14 -3 -6 -6z"/>
<path d="M2742 4414 c-7 -8 -17 -12 -23 -9 -5 4 -9 1 -9 -5 0 -7 -7 -10 -14
-7 -10 4 -18 -2 -22 -16 -4 -12 -2 -23 5 -25 6 -2 8 -8 5 -14 -4 -6 2 -8 17
-3 31 10 32 11 24 25 -5 8 -10 8 -14 2 -4 -6 -12 -4 -21 6 -13 14 -12 15 3 9
9 -3 19 -2 22 3 10 17 32 11 38 -9 2 -11 0 -24 -5 -29 -6 -6 -6 -12 1 -16 6
-4 11 -3 11 1 0 5 16 8 35 8 34 -2 47 9 23 18 -7 2 -10 8 -6 12 4 4 14 2 22
-4 16 -13 36 -7 36 11 0 11 -51 7 -85 -7 -18 -8 -19 -7 -6 8 12 15 11 17 -8
17 -18 0 -21 4 -16 20 7 24 5 25 -13 4z"/>
<path d="M2797 4423 c-4 -3 -7 -11 -7 -17 0 -6 5 -5 12 2 6 6 9 14 7 17 -3 3
-9 2 -12 -2z"/>
<path d="M4042 4320 c0 -14 2 -19 5 -12 2 6 2 18 0 25 -3 6 -5 1 -5 -13z"/>
<path d="M2720 4305 c-8 -9 -8 -15 -2 -15 12 0 26 19 19 26 -2 2 -10 -2 -17
-11z"/>
<path d="M4610 4306 c0 -2 7 -7 16 -10 8 -3 12 -2 9 4 -6 10 -25 14 -25 6z"/>
<path d="M2680 4291 c0 -6 5 -13 10 -16 6 -3 10 1 10 9 0 9 -4 16 -10 16 -5 0
-10 -4 -10 -9z"/>
<path d="M4650 4280 c0 -11 -4 -20 -10 -20 -5 0 -10 -4 -10 -10 0 -17 14 -11
32 14 15 21 15 25 3 30 -10 4 -15 -1 -15 -14z"/>
<path d="M4031 4225 l1 -60 10 48 c8 35 7 52 -1 60 -8 8 -11 -5 -10 -48z"/>
<path d="M4670 4260 c0 -5 5 -10 11 -10 5 0 7 5 4 10 -3 6 -8 10 -11 10 -2 0
-4 -4 -4 -10z"/>
<path d="M4032 4035 c0 -16 2 -22 5 -12 2 9 2 23 0 30 -3 6 -5 -1 -5 -18z"/>
<path d="M1444 3925 c-3 -8 -3 -19 1 -25 3 -5 2 -10 -3 -10 -5 0 -14 -12 -21
-26 -9 -21 -16 -25 -36 -20 -17 4 -25 2 -25 -6 0 -10 -2 -10 -8 -1 -6 9 -11 7
-20 -7 -10 -16 -10 -20 0 -20 10 0 10 -2 0 -9 -8 -4 -12 -17 -10 -27 2 -12 -5
-22 -19 -29 -15 -6 -25 -22 -29 -42 -3 -18 -10 -33 -15 -33 -5 0 -9 -13 -9
-30 0 -19 -5 -30 -14 -30 -18 0 -27 -25 -18 -51 7 -17 10 -19 20 -7 6 8 13 23
15 34 2 10 8 29 15 41 7 12 12 28 12 37 0 8 13 17 31 21 20 5 29 11 25 21 -3
7 4 18 14 24 11 6 20 17 20 25 0 8 4 14 9 13 5 -2 10 2 11 7 7 37 40 61 40 30
0 -8 -5 -15 -12 -15 -6 0 -8 -3 -4 -7 4 -5 14 0 21 10 8 12 15 14 20 8 3 -6
18 -11 33 -10 15 0 22 3 15 5 -7 3 -10 11 -7 18 3 8 -5 16 -21 20 -15 4 -23
11 -19 17 5 8 8 8 13 0 4 -6 12 3 18 20 10 26 10 30 -3 25 -8 -3 -14 1 -14 9
0 8 -5 15 -11 15 -5 0 -7 5 -4 10 3 6 4 10 0 10 -3 0 -8 -7 -11 -15z m27 -112
c13 -17 13 -17 -6 -3 -11 8 -22 16 -24 17 -2 2 0 3 6 3 6 0 17 -8 24 -17z"/>
<path d="M2146 3929 c-2 -8 -9 -29 -15 -48 -13 -41 -14 -61 -2 -61 9 0 33 111
25 119 -2 2 -5 -2 -8 -10z"/>
<path d="M1137 3903 c-4 -3 -7 -13 -7 -22 1 -13 3 -13 11 2 11 19 8 33 -4 20z"/>
<path d="M5276 3901 c-4 -7 -5 -15 -2 -18 9 -9 19 4 14 18 -4 11 -6 11 -12 0z"/>
<path d="M5305 3900 c3 -5 8 -10 11 -10 2 0 4 5 4 10 0 6 -5 10 -11 10 -5 0
-7 -4 -4 -10z"/>
<path d="M5336 3885 c4 -8 8 -15 10 -15 2 0 4 7 4 15 0 8 -4 15 -10 15 -5 0
-7 -7 -4 -15z"/>
<path d="M2005 3844 c-3 -22 -9 -51 -11 -66 -4 -20 -1 -28 9 -28 10 0 16 16
20 58 5 65 -8 94 -18 36z"/>
<path d="M5300 3859 c0 -5 -4 -7 -10 -4 -17 11 -11 -35 8 -54 23 -24 92 -65
98 -58 3 2 -3 12 -12 21 -13 14 -15 22 -6 42 11 22 10 24 -15 24 -14 0 -23 3
-20 7 9 9 -12 33 -29 33 -8 0 -14 -5 -14 -11z m40 -40 c0 -4 -4 -11 -10 -14
-5 -3 -10 0 -10 9 0 8 -3 23 -6 33 -5 16 -4 16 10 -1 9 -11 16 -23 16 -27z"/>
<path d="M1085 3784 c-19 -42 -35 -78 -35 -79 0 -4 -71 -155 -197 -419 -57
-120 -102 -220 -100 -222 10 -10 316 630 362 759 24 63 6 41 -30 -39z"/>
<path d="M5360 3850 c0 -5 7 -10 15 -10 8 0 15 5 15 10 0 6 -7 10 -15 10 -8 0
-15 -4 -15 -10z"/>
<path d="M5593 3843 c4 -3 0 -18 -8 -34 -14 -26 -13 -28 5 -34 12 -4 20 -15
19 -28 0 -12 -3 -16 -6 -9 -2 6 -11 12 -19 12 -9 0 -13 4 -10 9 4 5 2 11 -4
13 -7 2 -7 14 -1 36 11 37 4 40 -33 11 -31 -25 -36 -62 -6 -57 10 2 19 0 20
-4 1 -23 -1 -28 -14 -28 -8 0 -17 6 -20 13 -3 6 -5 3 -3 -8 1 -11 8 -20 15
-19 6 1 30 2 52 3 27 1 40 6 40 15 0 16 26 46 41 46 5 0 9 -5 9 -11 0 -5 -5
-7 -12 -3 -8 5 -9 2 -5 -9 4 -11 1 -17 -8 -17 -8 0 -15 -4 -15 -9 0 -5 14 -4
30 2 57 21 26 98 -44 111 -16 3 -26 2 -23 -1z m57 -23 c0 -5 -4 -10 -10 -10
-5 0 -9 -3 -9 -7 3 -19 -2 -23 -15 -11 -7 7 -11 19 -9 25 6 15 43 18 43 3z
m-90 -9 c0 -5 -7 -12 -16 -15 -24 -9 -28 -7 -14 9 14 17 30 20 30 6z"/>
<path d="M5780 3796 c-5 -15 -16 -26 -22 -25 -27 3 -39 -1 -35 -13 2 -7 0 -21
-5 -32 -8 -15 -12 -16 -19 -5 -6 9 -9 -5 -10 -41 -1 -30 -3 -80 -5 -110 -2
-30 1 -68 6 -85 11 -35 13 -106 11 -427 -2 -148 2 -244 8 -255 9 -15 10 -13
11 13 0 17 8 60 19 95 61 209 76 276 75 344 -2 69 -2 69 16 45 10 -14 30 -38
44 -55 53 -60 58 -72 29 -61 -15 6 -15 4 2 -14 10 -11 13 -20 7 -20 -7 0 -9
-7 -5 -17 8 -20 33 -48 33 -37 0 4 12 -6 26 -21 21 -22 28 -25 35 -14 7 12 13
11 40 -5 18 -10 29 -14 26 -9 -4 6 0 19 9 29 14 18 15 18 9 -3 -8 -27 10 -31
24 -5 16 27 14 -104 -3 -185 -34 -161 -102 -306 -185 -396 -47 -50 -108 -96
-115 -85 -11 15 -46 114 -57 158 -14 62 -35 96 -24 40 4 -19 22 -83 41 -142
39 -125 38 -119 19 -111 -20 7 -8 -20 58 -137 27 -47 56 -98 64 -115 l16 -30
-23 20 c-22 20 -105 105 -188 195 -23 25 -39 37 -36 28 6 -17 -71 -278 -81
-278 -3 0 -3 11 1 25 3 14 4 25 1 25 -3 0 -30 -76 -61 -170 -31 -93 -75 -209
-97 -257 -23 -49 -45 -99 -50 -113 l-9 -25 18 24 c11 13 36 62 57 110 20 47
58 128 84 180 l46 94 9 -64 c12 -82 -5 -225 -40 -328 -31 -94 -72 -187 -97
-224 -11 -16 -17 -30 -15 -33 8 -7 23 16 61 91 87 171 128 370 108 515 -9 69
-8 77 14 119 29 58 75 177 75 196 0 8 2 15 4 15 3 0 30 -27 62 -60 31 -33 77
-73 101 -88 23 -15 43 -30 43 -34 0 -3 16 -12 35 -18 19 -6 35 -18 35 -26 0
-29 17 -12 18 18 1 23 -18 64 -63 140 -57 95 -115 209 -115 227 0 3 17 17 37
31 21 14 55 40 76 59 21 19 41 30 45 25 5 -5 30 -35 56 -67 29 -35 54 -56 62
-53 8 3 24 1 36 -5 l23 -10 -22 5 c-13 2 -23 0 -23 -5 0 -5 6 -9 14 -9 22 0
27 -28 15 -96 -6 -35 -9 -69 -7 -76 3 -7 21 5 45 30 l41 42 84 -112 c82 -111
112 -159 169 -268 l28 -55 -3 700 c-4 728 -8 888 -21 918 -5 13 -4 16 9 11 13
-5 16 1 16 28 0 32 -2 34 -34 35 -47 1 -336 118 -353 143 -8 11 -37 31 -66 45
-29 13 -69 40 -90 59 -33 29 -69 47 -149 73 -13 4 -21 -3 -28 -21z m-21 -428
c1 -10 -3 -18 -8 -18 -5 0 -9 17 -9 38 0 28 2 32 9 17 4 -11 8 -28 8 -37z
m-12 -60 c-3 -8 -6 -5 -6 6 -1 11 2 17 5 13 3 -3 4 -12 1 -19z m20 -20 c-3 -8
-6 -5 -6 6 -1 11 2 17 5 13 3 -3 4 -12 1 -19z m523 -300 c43 -178 60 -309 65
-513 l4 -180 -18 120 c-17 105 -24 144 -47 253 -10 50 -19 16 -20 -81 -1 -114
-33 -256 -66 -289 -10 -10 -18 -26 -18 -37 0 -10 -7 -25 -16 -32 -15 -13 -16
-11 -11 21 30 168 32 512 3 729 -17 124 -16 135 12 139 24 4 29 17 10 26 -7 3
-3 3 10 0 13 -3 22 -1 22 7 0 6 9 0 20 -14 11 -14 33 -80 50 -149z m-259 -435
c-12 -20 -14 -14 -5 12 4 9 9 14 11 11 3 -2 0 -13 -6 -23z m34 -33 c3 -6 -1
-7 -9 -4 -18 7 -21 14 -7 14 6 0 13 -4 16 -10z m223 -192 c2 -23 12 -92 18
-123 6 -29 5 -28 -25 12 -36 50 -35 44 -17 88 16 37 22 43 24 23z m97 -158 c3
-5 1 -10 -4 -10 -6 0 -11 5 -11 10 0 6 2 10 4 10 3 0 8 -4 11 -10z m20 -98 c6
-4 11 -17 12 -30 4 -32 -13 -20 -48 36 -26 42 -27 46 -11 58 15 11 18 9 27
-22 6 -19 15 -38 20 -42z m38 -67 c-3 -9 -8 -14 -10 -11 -3 3 -2 9 2 15 9 16
15 13 8 -4z"/>
<path d="M1509 3780 c-6 -33 -4 -47 8 -43 7 3 13 8 13 12 0 8 -19 37 -21 31z"/>
<path d="M5405 3770 c-3 -5 -1 -10 4 -10 6 0 11 5 11 10 0 6 -2 10 -4 10 -3 0
-8 -4 -11 -10z"/>
<path d="M2106 3749 c-3 -13 -10 -56 -16 -96 -12 -75 -29 -111 -48 -99 -7 4
-12 17 -13 29 0 21 -1 21 -9 2 -6 -13 -9 8 -7 66 1 63 -1 86 -10 86 -8 0 -13
-14 -14 -31 -1 -17 -2 -38 -3 -46 -2 -8 -3 -24 -5 -35 -1 -18 -3 -18 -14 -4
-7 9 -17 14 -24 12 -6 -2 -14 5 -18 16 -9 29 -17 27 -77 -19 l-53 -40 -5 33
-6 32 -7 -27 c-4 -16 -12 -28 -17 -28 -6 0 -10 -8 -10 -17 0 -15 -2 -16 -10
-3 -8 13 -10 13 -10 -1 0 -18 -23 -31 -42 -24 -7 2 -27 -15 -44 -38 -31 -42
-51 -82 -36 -73 5 3 16 -3 24 -14 13 -15 14 -19 3 -24 -8 -3 -16 -1 -19 5 -2
5 -3 4 -2 -3 2 -7 11 -12 20 -10 10 2 24 -2 32 -9 10 -8 14 -8 14 0 0 6 5 11
11 11 5 0 7 -5 4 -10 -3 -6 5 -14 18 -19 29 -11 35 -24 29 -64 -3 -21 -12 -32
-33 -39 -16 -5 -29 -14 -29 -19 0 -5 -6 -9 -12 -9 -12 0 -62 -58 -132 -152
-15 -20 -44 -83 -63 -140 -31 -87 -37 -119 -39 -206 -4 -113 -6 -122 -33 -122
-10 0 -26 -12 -36 -26 -9 -15 -12 -24 -7 -20 6 3 13 0 15 -6 5 -13 11 18 7 37
-1 5 2 6 7 2 4 -5 8 -19 8 -30 0 -15 6 -22 17 -21 14 1 16 -2 7 -17 -5 -11 -7
-24 -4 -29 3 -6 2 -10 -4 -10 -5 0 -13 5 -16 10 -9 15 -42 12 -42 -4 0 -8 5
-14 10 -13 6 1 13 -11 17 -28 4 -16 9 -34 11 -40 1 -5 -3 -37 -10 -70 -14 -60
-18 -293 -8 -370 3 -22 9 -69 13 -105 3 -36 12 -95 19 -132 11 -60 11 -68 -3
-68 -8 0 -24 -7 -34 -16 -14 -14 -18 -14 -23 -3 -7 20 -52 254 -60 312 -4 27
-9 46 -12 43 -7 -7 14 -187 37 -303 18 -96 18 -123 -4 -123 -14 0 -17 -73 -2
-82 7 -5 5 -8 -6 -8 -12 0 -15 -7 -12 -30 3 -18 1 -30 -6 -30 -6 0 -9 -4 -6
-8 6 -10 -14 -78 -39 -137 -21 -48 -55 -178 -55 -210 0 -57 52 -125 95 -125 9
0 13 -4 10 -10 -3 -5 1 -10 9 -10 8 0 20 -9 26 -20 12 -22 40 -27 40 -7 0 9 3
8 9 -2 5 -7 14 -10 20 -7 6 4 11 3 11 -1 0 -15 51 -14 72 2 20 13 22 12 44
-34 12 -27 28 -52 35 -56 7 -5 10 -4 6 2 -4 6 6 16 21 22 19 9 27 10 30 1 3
-7 10 -6 22 5 16 14 21 10 70 -60 29 -42 76 -105 106 -140 56 -66 62 -77 42
-74 -7 1 -20 1 -28 -1 -22 -2 19 -18 51 -19 20 -1 98 -47 149 -88 2 -2 -6 -23
-19 -47 l-24 -42 -101 2 c-177 4 -331 57 -467 159 -166 124 -275 275 -286 396
-7 69 -18 77 -26 18 -3 -23 -21 -65 -42 -95 -19 -30 -33 -59 -30 -63 5 -10
-70 -117 -100 -141 -17 -14 -17 -13 -10 10 4 14 10 32 13 40 3 8 -24 -12 -61
-44 -37 -33 -67 -65 -67 -71 0 -6 -12 -22 -26 -36 l-26 -24 7 23 7 24 -50 -29
c-27 -15 -62 -43 -77 -61 -26 -32 -27 -33 -10 -52 10 -11 24 -20 32 -20 7 0
18 -11 23 -25 6 -15 17 -25 29 -25 16 0 50 -37 43 -47 -7 -10 0 -44 11 -55 11
-12 16 -42 17 -108 1 -14 -3 -53 -8 -87 l-9 -63 43 0 c24 0 55 5 69 12 19 9
28 9 37 0 14 -14 228 -17 228 -3 0 9 -46 69 -61 81 -16 12 -36 79 -32 104 7
36 64 61 105 47 32 -11 58 -5 58 13 0 8 11 11 30 8 23 -3 30 0 30 12 0 10 4
14 10 11 20 -12 52 31 48 66 -2 19 -8 33 -14 32 -8 -1 -10 6 -7 20 5 22 5 22
-10 2 l-16 -20 -1 20 c0 32 24 100 41 118 19 18 29 13 29 -14 0 -12 5 -16 14
-13 8 3 17 1 21 -5 3 -6 15 -11 26 -11 13 0 19 -7 19 -21 0 -11 5 -29 10 -40
6 -11 11 -54 12 -97 1 -72 0 -78 -23 -89 -13 -7 -28 -8 -34 -3 -6 4 -15 2 -22
-5 -15 -16 -7 -22 25 -19 12 0 22 -4 22 -11 0 -20 57 -142 69 -149 6 -4 11
-16 11 -27 0 -18 11 -19 406 -19 l406 0 123 128 c221 229 243 262 239 357 -5
121 -37 242 -72 275 -36 34 -46 33 -82 -6 -28 -31 -35 -34 -88 -34 -35 0 -52
4 -44 9 11 7 11 11 -2 23 -8 9 -12 19 -8 22 3 4 0 11 -7 16 -20 11 16 65 74
110 40 31 45 39 41 67 -3 19 0 34 7 37 7 2 3 5 -8 6 -11 1 -29 4 -40 6 -11 2
-36 5 -55 5 -47 0 -110 17 -110 29 0 6 -11 10 -25 10 -14 0 -25 -6 -25 -13 0
-17 33 -48 55 -51 25 -4 114 -58 120 -74 9 -24 -1 -25 -54 -7 -28 9 -55 14
-60 11 -5 -4 -12 -2 -16 4 -3 5 -30 10 -58 10 -49 0 -191 14 -264 26 -18 2
-38 11 -46 18 -7 8 -42 28 -78 46 -127 64 -214 151 -292 290 -24 43 -49 140
-49 188 0 12 -4 22 -8 22 -17 0 -58 208 -78 395 -10 94 -9 461 1 471 13 14 42
-12 43 -38 3 -80 16 -208 25 -240 9 -37 26 -60 55 -76 9 -5 17 -21 18 -36 2
-14 7 -30 11 -34 4 -4 6 3 3 15 -4 16 0 23 16 27 18 5 19 8 6 16 -13 8 -12 10
5 11 11 0 30 2 42 3 21 3 22 2 6 -33 -21 -48 -43 -130 -43 -160 0 -22 6 -18
61 37 34 34 66 62 70 62 21 0 5 -25 -57 -88 -62 -62 -103 -126 -90 -140 3 -3
6 -2 6 3 0 4 8 1 17 -6 15 -13 16 -12 11 9 -4 12 -2 20 2 17 5 -3 14 4 20 15
6 11 17 20 25 20 7 0 16 9 20 19 7 24 31 45 38 34 3 -4 -3 -26 -14 -47 -12
-25 -16 -43 -10 -49 6 -6 3 -16 -10 -26 -14 -12 -16 -20 -9 -31 8 -13 10 -12
10 4 0 11 3 17 6 13 3 -3 17 6 30 20 13 14 24 21 24 16 0 -6 10 -13 22 -17 21
-5 21 -7 6 -18 -9 -7 -18 -24 -20 -38 -2 -14 -14 -30 -28 -37 l-25 -13 33 0
c19 0 32 5 32 12 0 7 13 -12 29 -42 19 -37 24 -57 17 -62 -7 -5 -4 -8 6 -8 10
0 26 -17 38 -40 11 -22 25 -40 30 -40 14 0 14 1 -35 104 -27 58 -42 102 -38
112 4 12 3 15 -5 10 -16 -9 -16 26 -1 41 6 6 19 9 28 5 13 -5 13 -3 -2 12 -10
10 -16 25 -13 33 3 8 2 12 -3 9 -5 -3 -12 1 -15 10 -4 11 0 14 16 12 16 -2 23
3 25 17 3 18 2 18 -5 2 -7 -17 -9 -17 -21 -3 -20 24 12 32 57 13 20 -9 47 -19
60 -22 27 -8 82 14 82 33 0 7 4 10 10 7 5 -3 12 7 16 22 13 59 41 128 51 126
48 -10 62 -9 88 1 29 12 28 13 -36 18 -48 4 -80 13 -115 34 -74 43 -507 457
-533 510 -28 55 -42 179 -30 258 13 77 56 189 108 275 43 73 163 191 193 191
20 0 146 -105 182 -153 37 -48 45 -77 66 -231 10 -78 26 -172 35 -211 9 -38
22 -108 30 -155 27 -162 55 -246 127 -380 104 -193 310 -488 420 -600 30 -30
69 -74 87 -98 53 -68 54 -39 1 40 -102 155 -201 367 -231 497 -6 25 -12 136
-14 246 l-2 200 -68 172 c-38 95 -71 171 -73 168 -2 -2 8 -37 23 -77 77 -208
76 -206 72 -321 -2 -77 -7 -111 -17 -117 -10 -6 -7 -9 11 -12 24 -3 24 -4 21
-95 -2 -51 0 -98 4 -105 5 -7 19 -53 31 -103 14 -56 48 -142 90 -227 38 -75
63 -132 56 -126 -23 19 -159 202 -232 311 -181 271 -259 441 -284 621 -18 136
-14 634 7 754 9 50 16 109 16 129 0 46 10 37 21 -19 16 -83 19 -92 29 -102 14
-14 13 6 -6 89 -9 39 -19 95 -23 125 -3 30 -10 54 -16 52 -5 -2 -11 1 -13 7
-2 6 3 8 12 5 9 -3 16 -1 16 5 0 6 -7 11 -15 11 -18 0 -19 37 -4 129 6 42 7
67 0 74 -7 7 -12 2 -15 -14z m-446 -243 c0 -3 -4 -8 -10 -11 -5 -3 -10 -1 -10
4 0 6 5 11 10 11 6 0 10 -2 10 -4z m30 -87 c0 -5 -4 -9 -10 -9 -5 0 -10 7 -10
16 0 8 5 12 10 9 6 -3 10 -10 10 -16z m359 -477 l-2 -87 -14 78 c-15 77 -12
114 7 102 6 -3 9 -44 9 -93z m-616 -352 c3 -12 0 -20 -7 -20 -6 0 -12 9 -13
20 -1 11 2 20 6 20 5 0 11 -9 14 -20z m50 -110 c1 -11 7 -20 13 -20 17 0 23
-22 12 -45 -8 -19 -8 -19 -4 2 5 30 -24 40 -45 15 -14 -18 -17 -18 -35 -4 -13
10 -14 13 -3 9 9 -3 22 -1 30 4 16 9 21 49 7 49 -5 0 -7 4 -3 9 3 5 1 12 -5
16 -6 4 -8 11 -4 16 8 13 35 -24 37 -51z m-43 0 c8 -5 12 -12 9 -15 -12 -11
-49 -14 -55 -3 -4 7 -2 8 4 4 7 -4 12 -1 12 8 0 18 8 20 30 6z m184 -115 c51
-44 70 -69 75 -97 0 -5 -2 -7 -6 -5 -5 1 -7 6 -5 10 1 4 -13 14 -32 22 -18 8
-52 35 -74 60 -22 25 -45 45 -51 45 -13 0 -13 3 -5 24 7 19 5 20 98 -59z
m-134 57 c0 -13 -12 -22 -22 -16 -10 6 -1 24 13 24 5 0 9 -4 9 -8z m81 -159
c-12 -20 -14 -14 -5 12 4 9 9 14 11 11 3 -2 0 -13 -6 -23z m-91 -3 c0 -5 -5
-10 -11 -10 -5 0 -7 5 -4 10 3 6 8 10 11 10 2 0 4 -4 4 -10z m85 -30 c3 -5 1
-10 -4 -10 -6 0 -11 5 -11 10 0 6 2 10 4 10 3 0 8 -4 11 -10z m65 0 c-39 -27
-50 -31 -44 -16 5 14 22 22 49 25 6 0 3 -4 -5 -9z m97 -475 c-16 -16 -37 -20
-37 -7 0 8 42 30 49 25 2 -1 -4 -9 -12 -18z m67 -12 c10 -26 0 -25 -18 1 -13
20 -13 24 -2 20 8 -3 17 -13 20 -21z m276 -1217 c0 -16 -18 -31 -27 -22 -8 8
5 36 17 36 5 0 10 -6 10 -14z m190 -36 c0 -5 -4 -10 -10 -10 -5 0 -10 5 -10
10 0 6 5 10 10 10 6 0 10 -4 10 -10z m-45 -40 c3 -5 1 -10 -4 -10 -6 0 -11 5
-11 10 0 6 2 10 4 10 3 0 8 -4 11 -10z m-45 -40 c0 -5 -4 -10 -10 -10 -5 0
-10 5 -10 10 0 6 5 10 10 10 6 0 10 -4 10 -10z m-582 -19 c42 -21 127 -41 177
-41 19 0 36 -4 39 -8 9 -15 -120 -92 -152 -92 -17 0 -34 -5 -37 -10 -4 -7 -12
-7 -25 0 -10 5 -28 10 -39 10 -32 0 -51 27 -51 73 0 42 21 87 41 87 5 0 26 -8
47 -19z"/>
<path d="M1516 3713 c-6 -14 -5 -15 5 -6 7 7 10 15 7 18 -3 3 -9 -2 -12 -12z"/>
<path d="M2682 3630 c0 -14 2 -19 5 -12 2 6 2 18 0 25 -3 6 -5 1 -5 -13z"/>
<path d="M4010 3605 c-9 -90 -9 -110 1 -92 6 9 8 41 6 70 -2 33 -4 41 -7 22z"/>
<path d="M3516 3564 c32 -19 67 -43 77 -51 9 -9 20 -14 23 -11 6 7 -62 55
-113 82 -56 28 -49 17 13 -20z"/>
<path d="M1190 3541 c-14 -27 -13 -44 3 -36 6 4 4 0 -6 -8 -10 -9 -15 -21 -11
-31 4 -11 2 -15 -8 -11 -9 4 -14 -3 -16 -20 -3 -42 24 -24 44 30 6 17 15 39
19 49 6 14 5 17 -4 11 -10 -5 -11 -2 -6 14 8 26 -1 27 -15 2z"/>
<path d="M1130 3365 c0 -8 5 -15 11 -15 5 0 8 4 5 9 -4 5 0 12 6 14 8 3 6 6
-4 6 -10 1 -18 -6 -18 -14z"/>
<path d="M1110 3320 c0 -5 7 -7 15 -4 8 4 15 8 15 10 0 2 -7 4 -15 4 -8 0 -15
-4 -15 -10z"/>
<path d="M1090 3284 c0 -8 5 -12 10 -9 6 4 8 11 5 16 -9 14 -15 11 -15 -7z"/>
<path d="M2166 3239 c3 -6 17 -53 29 -106 23 -96 30 -111 42 -100 10 11 -49
205 -64 211 -8 4 -11 1 -7 -5z"/>
<path d="M1713 3154 c-32 -14 -63 -49 -63 -71 0 -7 18 5 40 27 41 41 71 49
100 28 9 -7 5 -3 -8 10 -26 25 -26 25 -69 6z"/>
<path d="M990 3076 c0 -2 7 -6 15 -10 8 -3 15 -1 15 4 0 6 -7 10 -15 10 -8 0
-15 -2 -15 -4z"/>
<path d="M960 3049 c0 -5 5 -7 10 -4 6 3 10 8 10 11 0 2 -4 4 -10 4 -5 0 -10
-5 -10 -11z"/>
<path d="M4808 3023 c6 -2 18 -2 25 0 6 3 1 5 -13 5 -14 0 -19 -2 -12 -5z"/>
<path d="M5018 3023 c7 -3 16 -2 19 1 4 3 -2 6 -13 5 -11 0 -14 -3 -6 -6z"/>
<path d="M4768 3013 c7 -3 16 -2 19 1 4 3 -2 6 -13 5 -11 0 -14 -3 -6 -6z"/>
<path d="M4728 3003 c7 -3 16 -2 19 1 4 3 -2 6 -13 5 -11 0 -14 -3 -6 -6z"/>
<path d="M1900 2998 c0 -2 16 -40 35 -84 19 -43 35 -70 35 -58 0 11 -13 47
-30 79 -29 56 -40 74 -40 63z"/>
<path d="M4688 2993 c7 -3 16 -2 19 1 4 3 -2 6 -13 5 -11 0 -14 -3 -6 -6z"/>
<path d="M1972 2805 c0 -16 2 -22 5 -12 2 9 2 23 0 30 -3 6 -5 -1 -5 -18z"/>
<path d="M5705 2728 c-3 -7 -1 -26 4 -43 9 -29 9 -28 9 13 -1 43 -5 52 -13 30z"/>
<path d="M1953 2675 c-12 -66 0 -74 16 -11 13 54 14 66 3 66 -5 0 -13 -25 -19
-55z"/>
<path d="M1130 2472 c-147 -267 -364 -561 -590 -799 -49 -51 -93 -93 -99 -93
-6 0 -21 -16 -35 -36 -13 -19 -26 -32 -29 -27 -8 13 10 210 27 288 8 39 24 99
35 135 28 90 28 100 -8 95 -16 -2 -48 -16 -72 -31 -64 -40 -176 -89 -274 -120
l-85 -26 0 -654 0 -655 58 37 c277 175 554 488 710 801 48 95 90 205 112 292
l17 66 7 -55 c24 -186 52 -241 39 -78 -4 56 -8 166 -7 243 1 122 5 155 31 255
23 85 41 131 70 175 49 74 157 274 151 280 -3 3 -29 -39 -58 -93z"/>
<path d="M5093 2543 c9 -2 25 -2 35 0 9 3 1 5 -18 5 -19 0 -27 -2 -17 -5z"/>
<path d="M1388 2533 c7 -3 16 -2 19 1 4 3 -2 6 -13 5 -11 0 -14 -3 -6 -6z"/>
<path d="M1980 2405 c0 -9 5 -26 12 -38 17 -33 70 -97 80 -97 17 0 7 20 -32
65 -22 25 -40 52 -40 60 0 8 -4 17 -10 20 -5 3 -10 -1 -10 -10z"/>
<path d="M4500 2411 c0 -6 4 -13 10 -16 6 -3 7 1 4 9 -7 18 -14 21 -14 7z"/>
<path d="M1815 2383 c22 -39 63 -70 101 -78 l29 -7 -30 17 c-16 9 -50 35 -74
58 -42 40 -43 41 -26 10z"/>
<path d="M2260 2370 c0 -5 9 -14 20 -20 23 -12 26 -5 6 16 -17 16 -26 18 -26
4z"/>
<path d="M2344 2343 c3 -6 2 -14 -4 -18 -5 -3 -10 -1 -10 5 0 7 -7 7 -22 -2
-13 -7 -27 -11 -33 -9 -5 1 -1 -7 10 -19 11 -12 21 -17 23 -11 2 6 12 11 22
11 10 0 21 6 23 13 4 9 8 9 15 -2 5 -7 15 -10 21 -7 17 11 13 26 -7 26 -10 0
-24 6 -31 13 -10 8 -12 8 -7 0z"/>
<path d="M1988 2293 c6 -2 18 -2 25 0 6 3 1 5 -13 5 -14 0 -19 -2 -12 -5z"/>
<path d="M2325 2281 c-3 -5 -2 -12 3 -15 5 -3 9 1 9 9 0 17 -3 19 -12 6z"/>
<path d="M2375 2270 c-3 -5 1 -10 10 -10 9 0 13 5 10 10 -3 6 -8 10 -10 10 -2
0 -7 -4 -10 -10z"/>
<path d="M5208 2263 c7 -3 16 -2 19 1 4 3 -2 6 -13 5 -11 0 -14 -3 -6 -6z"/>
<path d="M5925 1990 c4 -6 11 -8 16 -5 14 9 11 15 -7 15 -8 0 -12 -5 -9 -10z"/>
<path d="M2171 1944 c-1 -6 17 -60 39 -120 46 -124 142 -310 205 -399 74 -104
290 -299 420 -378 90 -55 100 -45 14 14 -181 124 -358 291 -444 417 -95 140
-104 158 -155 287 -59 151 -78 194 -79 179z"/>
<path d="M1560 1695 c0 -9 6 -12 15 -9 8 4 15 7 15 9 0 2 -7 5 -15 9 -9 3 -15
0 -15 -9z"/>
<path d="M1640 1680 c0 -5 5 -10 10 -10 6 0 10 5 10 10 0 6 -4 10 -10 10 -5 0
-10 -4 -10 -10z"/>
<path d="M1613 1640 c-9 -14 -10 -21 -1 -26 7 -4 8 -3 4 5 -6 8 -1 10 18 5 21
-5 25 -3 23 15 -2 26 -28 27 -44 1z"/>
<path d="M3350 1494 c0 -20 33 -89 37 -77 2 6 -5 29 -16 50 -11 21 -20 33 -21
27z"/>
<path d="M5567 1379 c-69 -68 -75 -76 -37 -51 25 17 56 43 70 59 91 101 74 98
-33 -8z"/>
<path d="M2430 1228 c0 -8 10 -23 23 -34 63 -56 321 -214 348 -214 8 0 5 8
-10 19 -21 16 -15 16 45 -5 65 -21 121 -23 109 -3 -3 4 -12 6 -20 3 -26 -10
-140 36 -251 101 -60 36 -116 65 -125 65 -9 0 -39 18 -68 41 -31 25 -51 35
-51 27z"/>
<path d="M2515 1025 c8 -58 10 -65 18 -85 4 -8 16 -40 27 -72 11 -31 28 -62
37 -70 14 -11 16 -11 10 4 -3 9 -11 36 -17 60 -20 75 -62 193 -72 203 -7 7 -8
-7 -3 -40z"/>
<path d="M305 609 c-66 -21 -162 -48 -212 -61 l-93 -22 0 -263 0 -264 287 2
c158 0 293 3 300 6 7 3 10 10 6 16 -4 6 2 8 15 5 25 -7 31 16 7 26 -22 8 -18
25 5 19 14 -4 20 0 20 12 0 11 -5 15 -15 11 -14 -5 -20 6 -16 28 1 5 -7 15
-18 23 -20 14 -18 49 2 36 6 -3 7 -1 3 5 -20 32 -42 31 -80 -4 -32 -30 -40
-33 -54 -22 -13 11 -15 10 -9 -5 4 -10 7 -21 7 -23 0 -2 11 -4 24 -4 17 0 26
-7 30 -25 3 -13 15 -29 26 -35 22 -12 27 -36 8 -42 -19 -7 -58 3 -58 14 0 6 7
8 14 5 11 -4 13 -1 9 11 -12 33 -25 42 -51 35 -21 -5 -24 -3 -18 12 4 11 -3
34 -19 61 -27 46 -30 54 -16 54 5 0 11 -10 15 -22 5 -19 8 -21 16 -8 8 12 12
12 18 2 7 -10 13 -8 30 7 20 16 20 20 7 31 -9 7 -14 19 -11 27 3 7 0 13 -5 13
-6 0 -9 9 -6 20 3 11 2 18 -2 16 -3 -2 -14 2 -24 9 -20 14 -13 45 10 45 9 0
13 -6 10 -15 -7 -17 12 -32 22 -18 10 17 49 25 56 12 9 -14 -13 -29 -32 -22
-7 3 -13 0 -13 -6 0 -6 5 -11 11 -11 6 0 8 -9 4 -20 -5 -15 -3 -18 8 -14 8 3
13 13 10 23 -3 11 2 21 11 24 22 9 20 34 -4 42 -11 3 -20 13 -20 22 0 12 -8
14 -35 10 -19 -3 -35 -2 -35 3 0 11 27 20 44 14 7 -3 16 2 19 10 4 9 13 16 21
16 7 0 21 11 30 25 9 14 15 25 14 25 -2 0 -19 -5 -38 -11 -19 -5 -92 -23 -162
-38 -126 -28 -127 -29 -183 -82 -31 -29 -69 -73 -85 -98 -44 -66 -36 -25 15
77 62 123 160 235 244 279 107 55 100 55 -64 2z m199 -244 c-4 -8 -11 -12 -16
-9 -6 4 -5 10 3 15 19 12 19 11 13 -6z m-94 -15 c0 -5 -4 -10 -10 -10 -5 0
-10 5 -10 10 0 6 5 10 10 10 6 0 10 -4 10 -10z m-110 -42 c0 -5 -9 -4 -20 2
-11 6 -20 12 -20 14 0 2 9 2 20 -1 11 -3 20 -9 20 -15z m34 -53 c-6 -16 -24
-21 -24 -7 0 11 11 22 21 22 5 0 6 -7 3 -15z m136 -5 c0 -11 -4 -20 -9 -20
-14 0 -23 18 -16 30 10 17 25 11 25 -10z"/>
<path d="M1360 436 c0 -8 -6 -17 -12 -19 -7 -3 -3 -6 9 -6 28 -1 35 10 17 27
-11 10 -14 10 -14 -2z"/>
<path d="M6480 405 c-13 -16 -73 -49 -65 -35 3 5 -10 8 -30 7 -19 -1 -33 -6
-31 -12 2 -5 13 -9 25 -8 11 2 21 -1 21 -6 0 -4 23 -9 50 -10 l50 -1 0 40 c0
44 -2 47 -20 25z"/>
<path d="M1425 320 c-3 -5 -1 -10 4 -10 6 0 11 5 11 10 0 6 -2 10 -4 10 -3 0
-8 -4 -11 -10z"/>
<path d="M3390 320 c0 -5 5 -10 10 -10 6 0 10 5 10 10 0 6 -4 10 -10 10 -5 0
-10 -4 -10 -10z"/>
<path d="M560 271 c0 -5 -9 -13 -20 -16 -30 -9 -24 -22 10 -22 17 0 30 4 30 8
0 4 3 14 6 23 4 11 1 16 -10 16 -9 0 -16 -4 -16 -9z"/>
<path d="M610 240 c0 -5 5 -10 10 -10 6 0 10 5 10 10 0 6 -4 10 -10 10 -5 0
-10 -4 -10 -10z"/>
<path d="M630 180 c-8 -5 -10 -10 -5 -10 6 0 17 5 25 10 8 5 11 10 5 10 -5 0
-17 -5 -25 -10z"/>
<path d="M1230 170 c0 -5 5 -10 10 -10 6 0 10 5 10 10 0 6 -4 10 -10 10 -5 0
-10 -4 -10 -10z"/>
<path d="M665 150 c3 -5 8 -10 11 -10 2 0 4 5 4 10 0 6 -5 10 -11 10 -5 0 -7
-4 -4 -10z"/>
<path d="M1316 123 c-12 -17 -14 -23 -5 -19 8 3 22 9 31 12 24 8 32 34 10 34
-9 0 -26 -12 -36 -27z"/>
<path d="M1410 140 c0 -5 5 -10 10 -10 6 0 10 5 10 10 0 6 -4 10 -10 10 -5 0
-10 -4 -10 -10z"/>
<path d="M1337 85 c-4 -8 -2 -17 3 -20 6 -4 10 3 10 14 0 25 -6 27 -13 6z"/>
<path d="M1374 78 c-5 -8 0 -9 14 -6 27 7 38 -8 22 -27 -13 -16 -7 -45 10 -45
17 0 12 77 -6 84 -23 9 -32 7 -40 -6z"/>
<path d="M1145 70 c-3 -5 -1 -10 4 -10 6 0 11 5 11 10 0 6 -2 10 -4 10 -3 0
-8 -4 -11 -10z"/>
<path d="M1315 21 c-3 -5 -1 -12 5 -16 5 -3 10 1 10 9 0 18 -6 21 -15 7z"/>
<path d="M1468 13 c7 -3 16 -2 19 1 4 3 -2 6 -13 5 -11 0 -14 -3 -6 -6z"/>
<path d="M3120 9 c0 -5 5 -7 10 -4 6 3 10 8 10 11 0 2 -4 4 -10 4 -5 0 -10 -5
-10 -11z"/>
</g>
</svg>
